<mxfile host="app.diagrams.net" modified="2025-02-10T13:19:48.027Z" agent="Mozilla/5.0 (Windows NT 10.0; Win64; x64) AppleWebKit/537.36 (KHTML, like Gecko) Chrome/133.0.0.0 Safari/537.36" version="24.3.1" etag="UaTXa-0_B8qT9nTVZnHz" type="github">
  <diagram name="Page-1" id="cVLwGSTJDg8xz6-GH4JF">
    <mxGraphModel>
      <root>
        <mxCell id="0" />
        <mxCell id="1" parent="0" />
      </root>
    </mxGraphModel>
  </diagram>
</mxfile>
